# xmcd
#
# Track frame offsets:
# 150
# 17761
# 31698
# 46284
# 60029
# 75598
# 85029
# 96899
# 111001
# 123169
# 135012
# 148393
# 162324
# 177776
# 188273
#
# Disc length: 2736 seconds
#
# Revision: 0
# Processed by: cddbd v1.5.1PL0 Copyright (c) Steve Scherf et al.
# Submitted via: Audion 3.0.2 (http://www.panic.com/audion/)
#
DISCID=a50aae0f
DTITLE=Engelbert -  Engelbert
DYEAR=1900
DGENRE=
TTITLE0=After the Lovin
TTITLE1=Am I that Easy to Forget
TTITLE2=Blue Spanish Eyes
TTITLE3=Last Waltz
TTITLE4=Man Without Love
TTITLE5=Misty Blue
TTITLE6=Place in the Sun
TTITLE7=Red Sails in the Sunset
TTITLE8=Ten Guitars
TTITLE9=Shadow of Your Smile
TTITLE10=There goes my everything
TTITLE11=There's a kind of hush
TTITLE12=Release me
TTITLE13=Walk through this world wi th me
TTITLE14=From here to eternity
EXTD=
EXTT0=
EXTT1=
EXTT2=
EXTT3=
EXTT4=
EXTT5=
EXTT6=
EXTT7=
EXTT8=
EXTT9=
EXTT10=
EXTT11=
EXTT12=
EXTT13=
EXTT14=
PLAYORDER=
